<?xml version="1.0" encoding="UTF-8" standalone="no"?>
<svg width="85px" height="85px" viewBox="0 0 85 85" version="1.1" xmlns="http://www.w3.org/2000/svg" xmlns:xlink="http://www.w3.org/1999/xlink" xmlns:sketch="http://www.bohemiancoding.com/sketch/ns">
    <!-- Generator: Sketch 3.2.2 (9983) - http://www.bohemiancoding.com/sketch -->
    <title>clocks</title>
    <desc>Created with Sketch.</desc>
    <defs></defs>
    <g id="Page-1" stroke="none" stroke-width="1" fill="none" fill-rule="evenodd" sketch:type="MSPage">
        <g id="Desktop-HD" sketch:type="MSArtboardGroup" transform="translate(-678.000000, -938.000000)">
            <g id="clocks" sketch:type="MSLayerGroup" transform="translate(678.000000, 938.000000)">
                <ellipse id="Oval" fill="#6182A5" sketch:type="MSShapeGroup" cx="42.3275792" cy="42.5" rx="42.3267327" ry="42.5"></ellipse>
                <path d="M42.3267327,8.5 C61.0292228,8.5 76.1881188,23.72265 76.1881188,42.5 C76.1881188,61.27735 61.0300693,76.5 42.3267327,76.5 C23.6259356,76.5 8.46534653,61.27735 8.46534653,42.5 C8.46534653,23.72265 23.6267822,8.5 42.3267327,8.5 L42.3267327,8.5 Z" id="Shape" fill="#FFFFFF" sketch:type="MSShapeGroup"></path>
                <path d="M42.3267327,8.51275 C32.3325446,8.51275 23.3533515,12.8639 17.1567178,19.77865 C23.1544158,14.3616 31.0872921,11.06275 39.7871287,11.06275 C58.4828465,11.06275 73.6366634,26.27945 73.6366634,45.05 C73.6366634,53.78545 70.3512624,61.7491 64.956297,67.76965 C71.8462426,61.5485 76.1779604,52.53425 76.1779604,42.5 C76.1779604,23.72945 61.023297,8.51275 42.3267327,8.51275 L42.3267327,8.51275 Z" id="Shape" fill="#DAD9D9" sketch:type="MSShapeGroup"></path>
                <path d="M64.0953788,41.0053589 C65.859525,41.0053589 67.2898492,42.4415382 67.2898492,44.2129061 C67.2898492,45.984274 65.859525,47.4204533 64.0953788,47.4204533 L48.9216444,47.4204533 C47.1574981,47.4204533 45.727174,45.984274 45.727174,44.2129061 C45.727174,42.4415382 47.1574981,41.0053589 48.9216444,41.0053589 L64.0953788,41.0053589 L64.0953788,41.0053589 Z" id="Shape" fill="#223447" sketch:type="MSShapeGroup"></path>
                <path d="M25.6838583,23.1909022 L39.2444482,37.6158805 C40.2552772,38.6911424 40.1874742,40.2213922 39.2512285,41.2149126 C38.3132877,42.2102361 36.8673898,42.297387 35.8543007,41.2221251 L22.2937109,26.7971468 C21.2817518,25.7218848 21.3478597,24.1802153 22.2846705,23.1860938 C23.2214812,22.1919724 24.6707693,22.1156402 25.6838583,23.1909022 L25.6838583,23.1909022 Z" id="Shape" fill="#223447" sketch:type="MSShapeGroup"></path>
                <path d="M38.9405941,38.335 C42.1785891,36.4565 46.3223762,37.5717 48.1906782,40.82295 C50.0606733,44.07335 48.9500198,48.23325 45.7120248,50.11005 C42.4723366,51.9877 38.3327822,50.87335 36.4619406,47.61955 C34.5936386,44.37 35.7017525,40.21265 38.9405941,38.335 L38.9405941,38.335 Z" id="Shape" fill="#223447" sketch:type="MSShapeGroup"></path>
                <path d="M23.9032864,58.4791414 C23.2794993,59.1426904 23.2794993,60.2197554 23.9032864,60.8833044 C24.5270736,61.5468535 25.5395976,61.5468535 26.1633847,60.8833044 L40.8540237,45.2562446 C41.4778109,44.5926956 41.4778109,43.5156305 40.8540237,42.8520815 C40.2302366,42.1885325 39.2177126,42.1885325 38.5939254,42.8520815 L23.9032864,58.4791414 L23.9032864,58.4791414 Z" id="Shape" fill="#E44D41" sketch:type="MSShapeGroup"></path>
            </g>
        </g>
    </g>
</svg>